<?xml version="1.0" encoding="utf-8"?>
<!-- Generator: Adobe Illustrator 17.0.0, SVG Export Plug-In . SVG Version: 6.00 Build 0)  -->
<!DOCTYPE svg PUBLIC "-//W3C//DTD SVG 1.1//EN" "http://www.w3.org/Graphics/SVG/1.1/DTD/svg11.dtd">
<svg version="1.1" id="Layer_1" xmlns="http://www.w3.org/2000/svg" xmlns:xlink="http://www.w3.org/1999/xlink" x="0px" y="0px"
	 width="175px" height="175px" viewBox="0 0 175 175" enable-background="new 0 0 175 175" xml:space="preserve">
<g>
	<path fill="#FFFFFF" d="M89.85,114.043c-0.883,0-1.691-0.59-1.931-1.483L76.44,69.73c-0.92-3.428-4.456-5.473-7.886-4.552
		c-2.212,0.594-3.957,2.338-4.552,4.553l-8.626,32.208c-0.445,1.66-0.217,3.395,0.643,4.883c0.86,1.488,2.249,2.554,3.911,2.999
		c0.512,0.137,1.037,0.212,1.561,0.222h12.656c1.104,0,2,0.896,2,2s-0.896,2-2,2H61.45c-0.885-0.018-1.73-0.138-2.554-0.357
		c-2.694-0.723-4.946-2.449-6.34-4.862c-1.396-2.414-1.766-5.227-1.043-7.92l8.627-32.207c0.963-3.59,3.79-6.417,7.378-7.381
		c5.553-1.489,11.295,1.822,12.785,7.38l11.479,42.83c0.286,1.066-0.347,2.163-1.414,2.449
		C90.195,114.021,90.021,114.043,89.85,114.043z"/>
	<path fill="#FFFFFF" d="M106.151,114.043c-0.883,0-1.691-0.59-1.931-1.483L92.741,69.731c-0.444-1.662-1.509-3.05-2.998-3.909
		c-1.49-0.859-3.225-1.088-4.888-0.642c-1.074,0.285-2.164-0.348-2.449-1.415c-0.286-1.067,0.348-2.164,1.414-2.45
		c2.695-0.721,5.508-0.352,7.922,1.042c2.415,1.394,4.143,3.645,4.862,6.339l11.479,42.827c0.286,1.066-0.347,2.163-1.414,2.449
		C106.497,114.021,106.322,114.043,106.151,114.043z"/>
	<path fill="#FFFFFF" d="M122.452,114.043c-0.883,0-1.691-0.59-1.931-1.483l-11.479-42.828c-0.445-1.662-1.511-3.05-2.999-3.909
		c-1.488-0.86-3.227-1.086-4.886-0.643c-1.068,0.288-2.164-0.348-2.449-1.414c-0.286-1.067,0.347-2.164,1.414-2.449
		c2.693-0.722,5.506-0.352,7.92,1.042c2.415,1.394,4.142,3.645,4.863,6.338l11.479,42.828c0.286,1.066-0.347,2.163-1.414,2.449
		C122.798,114.021,122.623,114.043,122.452,114.043z"/>
</g>
<path fill="#FFFFFF" d="M88.952,169.474c-45.2,0-81.974-36.773-81.974-81.975c0-45.2,36.773-81.974,81.974-81.974
	s81.974,36.773,81.974,81.974C170.926,132.7,134.152,169.474,88.952,169.474z M88.952,9.525c-42.995,0-77.974,34.979-77.974,77.974
	c0,42.995,34.979,77.975,77.974,77.975s77.974-34.979,77.974-77.975C166.926,44.504,131.947,9.525,88.952,9.525z"/>
</svg>
