<?xml version="1.0" encoding="utf-8"?>
<!-- Generator: Adobe Illustrator 17.0.0, SVG Export Plug-In . SVG Version: 6.00 Build 0)  -->
<!DOCTYPE svg PUBLIC "-//W3C//DTD SVG 1.1//EN" "http://www.w3.org/Graphics/SVG/1.1/DTD/svg11.dtd">
<svg version="1.1" id="Layer_1" xmlns="http://www.w3.org/2000/svg" xmlns:xlink="http://www.w3.org/1999/xlink" x="0px" y="0px"
	 width="34px" height="22px" viewBox="0 0 34 22" enable-background="new 0 0 34 22" xml:space="preserve">
<g>
	<path fill="#FFFFFF" d="M9,13v8H1v-8H9 M10,12H0v10h10V12L10,12z"/>
</g>
<g>
	<path fill="#FFFFFF" d="M21,13v8h-8v-8H21 M22,12H12v10h10V12L22,12z"/>
</g>
<g>
	<path fill="#FFFFFF" d="M21,1v8h-8V1H21 M22,0H12v10h10V0L22,0z"/>
</g>
<g>
	<path fill="#FFFFFF" d="M33,13v8h-8v-8H33 M34,12H24v10h10V12L34,12z"/>
</g>
</svg>
